<?xml version="1.0" standalone="no"?>
<!DOCTYPE svg PUBLIC "-//W3C//DTD SVG 20010904//EN"
 "http://www.w3.org/TR/2001/REC-SVG-20010904/DTD/svg10.dtd">
<svg version="1.0" xmlns="http://www.w3.org/2000/svg"
 width="957.000000pt" height="336.000000pt" viewBox="0 0 957.000000 336.000000"
 preserveAspectRatio="xMidYMid meet">
<metadata>
Created by potrace 1.16, written by Peter Selinger 2001-2019
</metadata>
<g transform="translate(0.000000,336.000000) scale(0.100000,-0.100000)"
fill="#000000" stroke="none">
<path d="M1630 2970 c-77 -21 -277 -117 -359 -172 -276 -187 -445 -521 -440
-873 l1 -60 13 63 c21 97 45 172 54 172 4 0 7 -14 6 -30 -4 -61 16 -258 35
-362 28 -145 60 -241 131 -383 133 -269 359 -513 617 -667 59 -35 63 -39 32
-33 -30 6 -126 33 -180 51 -37 13 94 -64 177 -103 140 -66 262 -95 408 -95
147 0 233 21 380 91 184 88 317 196 413 335 139 200 196 393 196 656 0 174
-13 259 -69 426 -152 457 -532 844 -951 970 -75 22 -113 27 -239 30 -127 4
-161 1 -225 -16z m495 -135 c41 -13 116 -72 410 -318 l360 -302 37 -75 c193
-391 143 -848 -124 -1144 -71 -79 -208 -172 -303 -208 -194 -72 -410 -58 -619
40 -250 117 -487 358 -616 625 -134 280 -160 583 -71 840 97 278 336 491 621
553 79 16 234 11 305 -11z"/>
<path d="M1344 2282 c-23 -20 -47 -45 -53 -54 -21 -28 -30 -89 -22 -135 20
-103 103 -163 225 -163 39 1 81 6 93 13 20 11 13 12 -45 9 -126 -7 -222 59
-238 164 -10 67 2 107 47 158 22 25 39 46 37 46 -1 0 -21 -17 -44 -38z"/>
<path d="M2197 1639 c-31 -26 -59 -66 -83 -114 -31 -64 -37 -85 -37 -142 0
-42 6 -83 17 -108 16 -39 16 -40 -9 -97 -15 -32 -25 -66 -23 -76 4 -20 58 -29
85 -13 15 9 13 10 -14 11 -29 0 -33 3 -33 25 0 14 11 47 25 74 l24 48 -21 54
c-39 104 -6 237 82 333 53 57 47 59 -13 5z"/>
<path d="M2499 2883 c17 -28 31 -52 31 -55 0 -2 -13 -3 -30 0 -16 2 -30 2 -30
0 0 -13 141 -107 170 -113 45 -9 169 -135 262 -266 81 -113 175 -299 217 -429
46 -143 53 -185 41 -232 -12 -42 -3 -198 10 -198 14 0 28 56 25 98 -2 23 -2
42 0 42 2 0 16 -20 31 -45 14 -25 28 -45 29 -43 6 6 -25 189 -45 267 -52 204
-148 411 -268 581 -107 150 -289 324 -446 425 l-28 19 31 -51z"/>
<path d="M6686 2445 c-10 -38 -81 -85 -128 -85 -33 0 -38 -3 -38 -23 0 -12
-31 -89 -70 -171 -38 -82 -70 -151 -70 -153 0 -2 8 -3 19 -3 14 0 34 34 85
143 36 79 66 153 66 165 0 19 6 22 35 22 65 0 135 55 135 106 0 32 -26 31 -34
-1z"/>
<path d="M7879 2087 c-46 -56 -98 -108 -132 -131 -45 -29 -64 -50 -87 -97 -63
-124 -142 -176 -232 -152 -42 11 -48 5 -20 -20 13 -12 37 -17 81 -17 61 0 63
1 109 48 26 26 62 74 79 108 25 47 45 69 87 97 33 22 86 74 128 126 40 49 79
90 86 90 17 1 15 28 -4 35 -9 3 -16 6 -17 6 -1 0 -36 -42 -78 -93z"/>
<path d="M6694 2078 c-27 -29 -67 -74 -88 -100 -21 -27 -53 -53 -72 -60 -19
-6 -34 -18 -34 -25 0 -16 0 -16 -43 2 -25 10 -70 15 -144 15 -96 -1 -106 -2
-89 -15 15 -11 39 -13 111 -8 75 5 102 2 143 -12 47 -17 51 -17 67 -2 9 10 20
17 24 17 9 0 159 172 178 204 32 55 6 47 -53 -16z"/>
<path d="M3977 2050 c-34 -95 -106 -149 -198 -150 -62 0 -107 16 -146 53 -19
18 -33 25 -33 17 0 -7 18 -30 40 -51 66 -63 179 -74 258 -26 63 38 121 142
104 188 -6 15 -11 9 -25 -31z"/>
<path d="M8315 1428 c-16 -29 -73 -133 -125 -232 -55 -104 -106 -187 -121
-198 -14 -11 -40 -20 -58 -20 -42 -1 -39 -31 4 -36 64 -8 89 19 175 187 44 86
100 192 125 235 42 74 56 116 38 116 -5 0 -21 -23 -38 -52z"/>
<path d="M450 1258 c72 -197 191 -378 360 -549 218 -219 455 -342 714 -371
l101 -11 68 34 68 35 -51 21 c-48 21 -50 21 -50 2 0 -23 -3 -23 -115 0 -361
74 -705 361 -912 757 l-58 111 -77 26 -77 25 29 -80z"/>
<path d="M4041 1214 c-34 -36 -77 -96 -96 -134 -37 -73 -61 -96 -113 -106 -43
-9 -42 -34 1 -34 54 0 93 32 132 110 20 40 62 99 100 139 36 37 65 74 65 80 0
26 -32 7 -89 -55z"/>
<path d="M5280 1175 c-65 -81 -105 -115 -137 -115 -14 0 -42 -15 -66 -35 -45
-39 -97 -53 -139 -37 -31 11 -36 2 -12 -22 37 -38 109 -27 167 24 18 15 49 30
69 34 30 5 49 21 95 73 32 37 70 80 86 96 27 29 28 47 2 47 -7 0 -36 -29 -65
-65z"/>
<path d="M7909 1122 c-9 -4 -32 -27 -51 -52 -48 -63 -127 -103 -195 -98 -36 3
-62 13 -87 32 -44 33 -47 19 -5 -23 82 -83 237 -49 315 69 15 22 34 40 43 40
9 0 23 5 31 10 13 9 13 11 0 20 -17 11 -28 11 -51 2z"/>
<path d="M7301 1034 c-92 -79 -132 -94 -195 -70 -42 16 -46 16 -78 -1 -23 -12
-55 -18 -105 -18 -59 0 -77 4 -102 23 -35 25 -42 13 -11 -18 30 -30 63 -40
134 -40 40 0 74 6 98 18 31 16 39 17 59 6 44 -24 111 -17 158 16 57 42 141
124 141 138 0 24 -26 9 -99 -54z"/>
</g>
</svg>
