<?xml version="1.0" standalone="no"?>
<!DOCTYPE svg PUBLIC "-//W3C//DTD SVG 20010904//EN"
 "http://www.w3.org/TR/2001/REC-SVG-20010904/DTD/svg10.dtd">
<svg version="1.0" xmlns="http://www.w3.org/2000/svg"
 width="957.000000pt" height="336.000000pt" viewBox="0 0 957.000000 336.000000"
 preserveAspectRatio="xMidYMid meet">

<g transform="translate(0.000000,336.000000) scale(0.100000,-0.100000)"
fill="#000000" stroke="none">
<path d="M1610 3089 c-30 -5 -59 -11 -64 -12 -5 -2 58 -1 140 1 127 3 164 1
249 -18 136 -30 165 -34 165 -22 0 11 -90 37 -180 52 -77 12 -233 11 -310 -1z"/>
<path d="M1630 2970 c-77 -21 -277 -117 -359 -172 -276 -187 -445 -521 -440
-873 l1 -60 13 63 c21 97 45 172 54 172 4 0 7 -14 6 -30 -4 -61 16 -258 35
-362 28 -145 60 -241 131 -383 133 -269 359 -513 617 -667 59 -35 63 -39 32
-33 -30 6 -126 33 -180 51 -37 13 94 -64 177 -103 140 -66 262 -95 408 -95
147 0 233 21 380 91 184 88 317 196 413 335 139 200 196 393 196 656 0 174
-13 259 -69 426 -152 457 -532 844 -951 970 -75 22 -113 27 -239 30 -127 4
-161 1 -225 -16z m495 -135 c41 -13 116 -72 410 -318 l360 -302 37 -75 c193
-391 143 -848 -124 -1144 -71 -79 -208 -172 -303 -208 -194 -72 -410 -58 -619
40 -250 117 -487 358 -616 625 -134 280 -160 583 -71 840 97 278 336 491 621
553 79 16 234 11 305 -11z"/>
<path d="M1695 2553 c-41 -10 -41 -25 0 -18 56 9 95 -7 95 -40 0 -33 17 -32
32 1 11 23 10 29 -11 45 -22 18 -70 23 -116 12z"/>
<path d="M1476 2519 c-44 -52 -27 -155 24 -142 24 6 25 11 4 35 -23 24 -22 93
1 118 10 11 13 20 7 20 -5 0 -22 -14 -36 -31z"/>
<path d="M1664 2465 c-14 -36 44 -68 101 -55 52 12 63 26 16 22 -43 -4 -81 11
-81 33 0 20 -29 19 -36 0z"/>
<path d="M1587 2333 c-14 -13 -6 -20 34 -32 42 -13 94 -7 106 11 4 7 0 9 -10
5 -9 -3 -38 0 -64 8 -55 17 -57 17 -66 8z"/>
<path d="M1344 2282 c-23 -20 -47 -45 -53 -54 -21 -28 -30 -89 -22 -135 20
-103 103 -163 225 -163 39 1 81 6 93 13 20 11 13 12 -45 9 -126 -7 -222 59
-238 164 -10 67 2 107 47 158 22 25 39 46 37 46 -1 0 -21 -17 -44 -38z"/>
<path d="M1558 2213 c-38 -44 -52 -113 -23 -113 8 0 15 3 16 8 4 56 9 76 23
97 19 28 7 34 -16 8z"/>
<path d="M1630 2210 c-13 -8 -13 -10 2 -10 48 0 61 -61 27 -125 l-21 -40 31
30 c42 39 58 98 36 131 -16 25 -49 31 -75 14z"/>
<path d="M1830 2035 c-26 -41 -20 -55 24 -55 18 0 40 -6 49 -13 16 -11 11 -24
-53 -154 -73 -150 -75 -153 -62 -153 4 0 43 72 87 161 77 155 79 161 61 175
-11 8 -35 14 -53 14 -25 0 -33 4 -33 18 0 10 5 23 12 30 8 8 9 12 1 12 -6 0
-21 -16 -33 -35z"/>
<path d="M2040 1986 c0 -15 5 -17 27 -11 14 3 34 12 44 18 14 11 10 12 -27 12
-36 0 -44 -3 -44 -19z"/>
<path d="M2197 1639 c-31 -26 -59 -66 -83 -114 -31 -64 -37 -85 -37 -142 0
-42 6 -83 17 -108 16 -39 16 -40 -9 -97 -15 -32 -25 -66 -23 -76 4 -20 58 -29
85 -13 15 9 13 10 -14 11 -29 0 -33 3 -33 25 0 14 11 47 25 74 l24 48 -21 54
c-39 104 -6 237 82 333 53 57 47 59 -13 5z"/>
<path d="M2256 1632 c-3 -6 1 -12 9 -16 25 -9 17 -39 -45 -165 -58 -118 -69
-151 -52 -151 13 0 143 274 145 306 2 25 -2 29 -25 32 -14 2 -29 -1 -32 -6z"/>
<path d="M1630 1605 c0 -8 13 -29 29 -47 l29 -32 105 2 c78 2 114 -1 143 -13
39 -16 64 -14 64 5 0 26 -71 41 -177 38 l-105 -3 -27 33 c-29 33 -61 43 -61
17z"/>
<path d="M2451 1538 c-44 -39 -66 -66 -59 -73 2 -2 28 24 59 56 31 32 55 59
53 59 -2 0 -26 -19 -53 -42z"/>
<path d="M2663 1477 c-38 -29 -59 -55 -50 -63 2 -2 25 19 52 46 57 58 57 62
-2 17z"/>
<path d="M2469 1493 c-1 -5 0 -16 1 -26 1 -10 -37 -94 -84 -187 -47 -93 -86
-176 -86 -184 0 -12 10 -16 38 -16 20 0 44 5 52 10 11 7 7 10 -17 10 -27 0
-33 4 -33 21 0 12 38 95 85 186 47 91 85 171 85 179 0 14 -39 20 -41 7z"/>
<path d="M2681 1431 c-7 -5 -11 -14 -7 -20 4 -6 -16 -65 -43 -131 -28 -66 -51
-126 -51 -134 0 -48 38 -70 94 -55 47 13 53 26 10 21 -77 -9 -82 36 -19 184
54 126 58 162 16 135z"/>
<path d="M2794 1218 l-29 -33 30 25 c17 14 34 28 40 32 5 5 5 8 -1 8 -6 0 -23
-15 -40 -32z"/>
<path d="M2250 1180 c0 -13 20 -13 40 0 12 8 9 10 -12 10 -16 0 -28 -4 -28
-10z"/>
<path d="M2499 2883 c17 -28 31 -52 31 -55 0 -2 -13 -3 -30 0 -16 2 -30 2 -30
0 0 -13 141 -107 170 -113 45 -9 169 -135 262 -266 81 -113 175 -299 217 -429
46 -143 53 -185 41 -232 -12 -43 -3 -198 11 -198 12 0 23 48 23 98 -1 23 0 42
2 42 2 0 15 -20 30 -45 14 -25 28 -45 29 -43 6 6 -25 189 -45 267 -52 204
-148 411 -268 581 -107 150 -289 324 -446 425 l-28 19 31 -51z"/>
<path d="M1024 2818 l-19 -23 23 19 c21 18 27 26 19 26 -2 0 -12 -10 -23 -22z"/>
<path d="M989 2773 c-13 -16 -12 -17 4 -4 9 7 17 15 17 17 0 8 -8 3 -21 -13z"/>
<path d="M942 2708 c-41 -61 -47 -72 -34 -64 11 7 75 106 67 106 -2 0 -17 -19
-33 -42z"/>
<path d="M6686 2445 c-10 -38 -81 -85 -128 -85 -33 0 -38 -3 -38 -23 0 -12
-31 -89 -70 -171 -38 -82 -70 -151 -70 -153 0 -2 8 -3 19 -3 14 0 34 34 85
143 36 79 66 153 66 165 0 19 6 22 35 22 65 0 135 55 135 106 0 32 -26 31 -34
-1z"/>
<path d="M3913 2438 c-29 -14 -58 -70 -49 -94 7 -16 10 -14 27 18 21 41 41 50
111 50 26 0 48 4 48 9 0 26 -93 38 -137 17z"/>
<path d="M4090 2393 c0 -37 -81 -70 -126 -52 -24 9 -30 3 -16 -17 36 -53 162
-17 162 47 0 10 -4 21 -10 24 -5 3 -10 2 -10 -2z"/>
<path d="M5640 2366 c0 -30 -45 -69 -78 -68 -20 0 -32 -4 -32 -13 0 -15 22
-25 55 -25 45 0 98 95 65 115 -5 3 -10 -1 -10 -9z"/>
<path d="M5410 2359 c0 -9 -34 -85 -75 -168 -41 -84 -75 -156 -75 -161 0 -6 6
-10 13 -10 14 0 157 285 157 311 0 8 -5 21 -10 29 -8 13 -10 13 -10 -1z"/>
<path d="M6354 2361 c7 -11 76 -20 76 -10 0 10 -27 19 -56 19 -14 0 -23 -4
-20 -9z"/>
<path d="M8727 2204 c-71 -142 -92 -201 -68 -192 12 4 161 304 161 323 0 41
-24 8 -93 -131z"/>
<path d="M3755 2300 c3 -5 8 -10 11 -10 2 0 4 5 4 10 0 6 -5 10 -11 10 -5 0
-7 -4 -4 -10z"/>
<path d="M4566 2277 c-5 -15 -6 -31 -2 -34 11 -11 18 5 14 34 l-4 28 -8 -28z"/>
<path d="M7176 2274 c-4 -15 -5 -29 -2 -31 9 -9 26 8 26 27 0 30 -17 32 -24 4z"/>
<path d="M3980 2244 c-31 -17 -51 -17 -101 -3 -35 11 -40 10 -71 -16 -59 -49
-88 -102 -88 -159 l1 -51 19 55 c13 39 33 68 68 102 l49 47 44 -13 c57 -17
112 -2 117 32 4 25 -2 26 -38 6z"/>
<path d="M7990 2246 c0 -8 5 -18 10 -21 6 -3 10 1 10 9 0 8 -4 18 -10 21 -5 3
-10 -1 -10 -9z"/>
<path d="M8457 2135 c-49 -98 -56 -125 -34 -125 10 1 40 56 82 155 7 17 10 38
6 48 -5 12 -19 -9 -54 -78z"/>
<path d="M4296 2205 c-3 -9 -18 -15 -35 -15 -37 0 -45 -11 -35 -53 7 -31 8
-31 14 -7 4 17 13 24 25 23 29 -2 55 15 55 37 0 24 -16 35 -24 15z"/>
<path d="M7778 2102 c-30 -64 -54 -119 -52 -120 6 -7 53 33 54 46 0 7 16 44
35 82 36 71 42 95 26 104 -4 3 -33 -47 -63 -112z"/>
<path d="M4559 2203 c-34 -4 -39 -9 -83 -93 -26 -50 -44 -94 -41 -100 7 -12
25 -13 25 -2 0 5 19 43 42 85 38 71 44 77 73 77 30 0 55 15 55 32 0 4 -8 7
-17 6 -10 -1 -34 -3 -54 -5z"/>
<path d="M4922 2125 c-45 -91 -49 -105 -29 -105 12 1 88 154 87 178 0 29 -18
7 -58 -73z"/>
<path d="M7170 2201 c-30 -5 -40 -15 -77 -81 -40 -70 -54 -120 -35 -120 5 0
17 19 28 42 10 22 31 61 46 85 24 37 32 43 62 43 29 0 46 13 46 36 0 5 -24 3
-70 -5z"/>
<path d="M8071 2121 c-43 -93 -48 -111 -31 -111 11 0 90 155 90 176 0 38 -22
13 -59 -65z"/>
<path d="M5757 2173 c-35 -38 -92 -162 -80 -174 6 -6 22 14 43 56 19 37 46 77
62 90 29 25 37 55 15 55 -7 0 -25 -12 -40 -27z"/>
<path d="M6851 2115 c-44 -94 -48 -105 -28 -105 18 1 93 168 80 181 -7 7 -23
-17 -52 -76z"/>
<path d="M5852 2138 c-7 -29 -15 -64 -19 -77 -4 -17 -2 -22 8 -19 20 7 44 103
33 129 -8 18 -11 13 -22 -33z"/>
<path d="M6690 2171 c0 -10 -3 -28 -7 -38 -6 -16 -5 -16 10 -4 19 15 23 46 7
56 -5 3 -10 -3 -10 -14z"/>
<path d="M7341 2151 c-31 -38 -40 -71 -21 -71 18 0 75 70 75 92 0 26 -25 16
-54 -21z"/>
<path d="M4730 2122 c-14 -30 -26 -59 -28 -64 -2 -4 4 -8 13 -8 16 0 54 70 55
102 0 36 -16 24 -40 -30z"/>
<path d="M5150 2148 c-44 -48 -77 -115 -63 -129 8 -8 15 -2 28 25 9 19 35 51
56 71 40 36 51 65 23 65 -8 0 -28 -14 -44 -32z"/>
<path d="M5512 2103 c-30 -76 -33 -104 -8 -84 20 17 60 141 49 152 -6 6 -21
-17 -41 -68z"/>
<path d="M7450 2165 c0 -26 -88 -112 -136 -132 -28 -12 -44 -24 -44 -35 0 -26
30 -22 81 10 86 56 145 145 109 167 -5 3 -10 -1 -10 -10z"/>
<path d="M7637 2148 c-38 -51 -70 -119 -60 -129 6 -6 26 18 51 56 23 36 48 65
57 65 8 0 15 9 15 20 0 31 -36 24 -63 -12z"/>
<path d="M7879 2087 c-46 -56 -98 -108 -132 -131 -45 -29 -64 -50 -87 -97 -63
-124 -142 -176 -232 -152 -42 11 -48 5 -20 -20 13 -12 37 -17 81 -17 61 0 63
1 109 48 26 26 62 74 79 108 25 47 45 69 87 97 33 22 86 74 128 126 40 49 79
90 86 90 17 1 15 28 -4 35 -9 3 -16 6 -17 6 -1 0 -36 -42 -78 -93z"/>
<path d="M8302 2143 c-39 -50 -72 -105 -72 -120 0 -24 28 -13 40 16 6 16 32
50 56 75 24 26 44 51 44 56 0 24 -41 7 -68 -27z"/>
<path d="M4076 2095 c-60 -69 -77 -95 -60 -95 3 0 15 11 26 25 11 14 24 25 29
25 17 0 89 82 89 102 0 31 -17 20 -84 -57z"/>
<path d="M3866 2129 c-14 -11 -26 -27 -26 -34 0 -7 -7 -21 -16 -30 -16 -16
-13 -45 6 -45 5 0 16 15 23 33 18 43 41 60 72 55 31 -6 32 6 3 26 -29 20 -30
20 -62 -5z"/>
<path d="M6694 2078 c-27 -29 -67 -74 -88 -100 -21 -27 -53 -53 -72 -60 -19
-6 -34 -18 -34 -25 0 -16 0 -16 -43 2 -25 10 -70 15 -144 15 -96 -1 -106 -2
-89 -15 15 -11 39 -13 111 -8 75 5 102 2 143 -12 47 -17 51 -17 67 -2 9 10 20
17 24 17 9 0 159 172 178 204 32 55 6 47 -53 -16z"/>
<path d="M4545 2034 c-81 -82 -142 -118 -191 -112 -19 2 -34 1 -34 -3 0 -17
33 -39 59 -39 26 0 116 53 167 98 20 17 80 122 72 126 -2 1 -34 -31 -73 -70z"/>
<path d="M5367 2063 c-74 -101 -156 -159 -205 -146 -24 6 -29 -6 -10 -25 34
-34 122 3 183 76 30 36 79 131 71 139 -2 2 -20 -18 -39 -44z"/>
<path d="M6525 2063 c-39 -54 -43 -66 -17 -61 19 4 80 108 63 108 -6 0 -26
-21 -46 -47z"/>
<path d="M3977 2050 c-34 -95 -106 -149 -198 -150 -62 0 -107 16 -146 53 -19
18 -33 25 -33 17 0 -7 18 -30 40 -51 66 -63 179 -74 258 -26 63 38 121 142
104 188 -6 15 -11 9 -25 -31z"/>
<path d="M4323 2065 c-15 -19 -40 -40 -55 -46 -15 -6 -30 -19 -33 -30 -3 -10
-20 -30 -36 -44 -33 -27 -102 -35 -140 -15 -23 13 -26 -2 -3 -24 21 -22 58
-30 102 -23 27 4 48 18 77 50 22 24 48 48 58 54 16 8 73 113 62 113 -2 0 -17
-16 -32 -35z"/>
<path d="M6904 2039 c-84 -86 -131 -119 -171 -119 -35 0 -41 -8 -21 -28 31
-31 80 -8 189 90 24 21 73 107 66 114 -2 2 -30 -24 -63 -57z"/>
<path d="M8477 2017 c-82 -82 -128 -110 -167 -100 -20 5 -21 4 -11 -16 9 -15
21 -21 46 -21 47 0 149 86 188 159 16 29 27 53 25 54 -1 1 -38 -33 -81 -76z"/>
<path d="M4739 2024 c-61 -64 -118 -104 -146 -104 -26 0 -32 -27 -8 -36 27
-11 62 5 114 52 46 41 99 119 89 130 -3 2 -24 -17 -49 -42z"/>
<path d="M5885 2030 c-19 -21 -80 -45 -93 -36 -5 3 -24 -10 -43 -30 -40 -41
-95 -59 -134 -44 -37 14 -46 3 -16 -21 13 -11 39 -19 59 -19 38 0 116 40 126
65 3 9 18 15 37 15 35 0 99 42 99 65 0 23 -16 26 -35 5z"/>
<path d="M8713 2011 c-12 -15 -43 -43 -70 -60 -37 -25 -56 -32 -85 -29 -41 4
-46 -2 -22 -26 35 -35 104 -8 180 69 30 31 54 60 54 65 0 21 -37 9 -57 -19z"/>
<path d="M4074 2005 c-9 -22 4 -34 29 -27 21 5 37 19 37 35 0 14 -61 7 -66 -8z"/>
<path d="M4915 1983 c-55 -48 -92 -66 -126 -61 -33 5 -36 -3 -13 -26 23 -24
55 -19 106 14 59 39 80 64 76 88 -3 18 -7 17 -43 -15z"/>
<path d="M7107 1985 c-52 -46 -102 -68 -143 -63 -38 5 -42 -2 -16 -25 27 -25
60 -21 117 13 70 41 95 65 95 89 0 28 -8 26 -53 -14z"/>
<path d="M7406 1984 c-82 -71 -161 -91 -210 -53 -33 26 -34 9 -2 -28 20 -23
32 -28 68 -27 74 2 193 79 187 121 -4 20 -6 19 -43 -13z"/>
<path d="M8077 1992 c-16 -16 -51 -42 -79 -57 -42 -23 -54 -25 -74 -16 -19 8
-24 8 -24 -4 0 -18 31 -35 63 -35 34 0 119 59 135 93 20 42 10 51 -21 19z"/>
<path d="M5504 1971 c-57 -45 -96 -63 -119 -55 -18 7 -20 -7 -3 -24 20 -20 51
-14 99 17 71 48 81 58 77 81 -3 21 -6 20 -54 -19z"/>
<path d="M5075 1938 c-31 -23 -47 -29 -72 -24 -18 2 -33 1 -33 -3 0 -17 32
-34 61 -33 51 1 122 68 92 85 -5 2 -26 -9 -48 -25z"/>
<path d="M8235 1944 c-31 -19 -50 -24 -82 -21 -39 4 -42 3 -32 -14 11 -22 49
-34 82 -26 39 10 85 50 78 69 -5 15 -10 14 -46 -8z"/>
<path d="M7460 1915 c0 -28 41 -38 83 -20 47 19 49 37 3 24 -22 -6 -43 -6 -60
1 -21 8 -26 7 -26 -5z"/>
<path d="M7500 1833 c-33 -27 -54 -68 -44 -84 8 -14 94 81 94 105 0 13 -20 5
-50 -21z"/>
<path d="M8159 1467 c-43 -23 -169 -160 -169 -184 0 -30 21 -17 71 44 54 66
128 123 160 123 17 0 32 23 22 34 -12 12 -40 6 -84 -17z"/>
<path d="M3880 1450 c0 -19 -11 -61 -24 -92 -25 -62 -20 -74 12 -33 24 31 38
116 23 142 -9 15 -10 12 -11 -17z"/>
<path d="M8315 1428 c-16 -29 -73 -133 -125 -232 -55 -104 -106 -187 -121
-198 -14 -11 -40 -20 -58 -20 -42 -1 -39 -31 4 -36 64 -8 89 19 175 187 44 86
100 192 125 235 42 74 56 116 38 116 -5 0 -21 -23 -38 -52z"/>
<path d="M3723 1456 c-66 -35 -122 -175 -107 -261 l8 -40 7 61 c11 93 82 214
125 214 18 0 18 26 1 33 -7 3 -23 0 -34 -7z"/>
<path d="M4970 1430 c0 -11 -12 -32 -26 -46 -19 -20 -33 -25 -59 -22 -29 3
-32 2 -24 -13 22 -42 88 -30 114 20 17 34 20 67 5 76 -5 3 -10 -3 -10 -15z"/>
<path d="M7016 1428 c-18 -25 -22 -88 -6 -88 6 0 10 11 10 24 0 15 10 32 27
44 15 11 23 24 19 30 -11 19 -33 14 -50 -10z"/>
<path d="M7143 1398 c-11 -24 -65 -71 -112 -98 -8 -4 -11 -15 -8 -24 6 -15 10
-15 34 -2 16 8 45 29 66 48 33 28 38 38 35 68 l-3 35 -12 -27z"/>
<path d="M4090 1397 c0 -9 -11 -42 -25 -73 -32 -71 -31 -74 4 -40 33 31 51
100 32 119 -8 8 -11 6 -11 -6z"/>
<path d="M4280 1333 c0 -10 -28 -73 -62 -140 -49 -94 -60 -124 -51 -134 9 -9
26 16 72 110 59 116 72 163 51 176 -5 3 -10 -2 -10 -12z"/>
<path d="M7776 1319 c-27 -31 -31 -59 -16 -94 8 -18 9 -17 9 6 1 43 37 79 77
79 20 0 44 -5 54 -10 34 -18 33 9 -2 30 -49 30 -91 26 -122 -11z"/>
<path d="M450 1258 c72 -197 191 -378 360 -549 218 -219 455 -342 714 -371
l101 -11 68 34 68 35 -51 21 c-48 21 -50 21 -50 2 0 -23 -3 -23 -115 0 -361
74 -705 361 -912 757 l-58 111 -77 26 -77 25 29 -80z"/>
<path d="M3873 1293 c-46 -50 -143 -188 -143 -204 0 -11 11 -11 25 -1 6 4 31
36 57 72 25 36 64 84 87 108 40 41 53 72 29 72 -6 0 -31 -21 -55 -47z"/>
<path d="M5366 1305 c-3 -9 0 -15 9 -15 16 0 20 16 6 24 -5 3 -11 -1 -15 -9z"/>
<path d="M7385 1290 c-3 -10 -22 -29 -41 -41 -29 -18 -45 -20 -87 -15 l-52 6
3 -49 c3 -40 -1 -57 -22 -87 -18 -27 -22 -40 -14 -45 16 -10 25 -3 44 33 9 18
14 47 12 70 l-4 39 48 -6 c39 -6 54 -3 83 15 39 24 55 48 55 79 0 27 -17 27
-25 1z"/>
<path d="M4625 1190 c-37 -75 -46 -103 -38 -111 9 -9 23 12 57 80 25 50 46 97
46 105 0 40 -21 16 -65 -74z"/>
<path d="M5838 1201 c-45 -85 -59 -131 -40 -131 14 0 94 175 90 199 -2 18 -14
3 -50 -68z"/>
<path d="M8488 1271 c-10 -12 -24 -18 -35 -15 -27 7 -45 -18 -35 -46 7 -20 10
-21 15 -7 4 11 18 17 37 17 32 0 44 15 38 50 -3 21 -3 21 -20 1z"/>
<path d="M4041 1214 c-34 -36 -77 -96 -96 -134 -37 -73 -61 -96 -113 -106 -43
-9 -42 -34 1 -34 54 0 93 32 132 110 20 40 62 99 100 139 36 37 65 74 65 80 0
26 -32 7 -89 -55z"/>
<path d="M5450 1186 c-22 -49 -40 -92 -40 -97 0 -16 31 -9 36 9 3 9 19 47 37
85 23 51 28 70 19 79 -9 9 -21 -10 -52 -76z"/>
<path d="M5076 1227 c-37 -49 -79 -145 -71 -165 5 -12 17 3 45 58 22 41 51 84
65 95 14 12 25 26 25 33 0 24 -40 11 -64 -21z"/>
<path d="M6071 1243 c-1 -12 -4 -30 -7 -40 -6 -17 -6 -17 11 -1 15 14 16 21 7
40 -11 23 -11 23 -11 1z"/>
<path d="M6231 1181 c-23 -44 -41 -87 -41 -95 0 -33 27 -1 64 75 28 57 36 83
28 91 -7 7 -22 -12 -51 -71z"/>
<path d="M6472 1238 c-27 -29 -82 -135 -82 -157 0 -38 13 -27 48 40 20 39 48
81 64 94 15 13 28 28 28 34 0 19 -36 12 -58 -11z"/>
<path d="M8660 1215 c-43 -63 -73 -133 -65 -153 5 -13 15 0 40 48 33 66 71
114 95 122 19 6 3 28 -20 28 -11 0 -32 -19 -50 -45z"/>
<path d="M8998 1233 c-34 -36 -67 -102 -75 -147 -7 -44 12 -50 22 -6 6 29 82
152 97 158 9 4 0 22 -11 22 -4 0 -19 -12 -33 -27z"/>
<path d="M4482 1215 c-42 -47 -85 -122 -77 -135 11 -17 22 -11 35 20 7 16 32
51 56 77 25 26 42 53 40 60 -8 21 -22 15 -54 -22z"/>
<path d="M4842 1170 c-18 -46 -30 -85 -28 -88 3 -2 13 -2 22 2 9 4 14 9 11 12
-3 3 6 30 20 61 18 40 23 60 16 75 -7 17 -14 7 -41 -62z"/>
<path d="M5182 1203 c-22 -83 -25 -103 -13 -103 16 0 45 108 34 132 -7 16 -10
11 -21 -29z"/>
<path d="M5683 1206 c-54 -61 -81 -112 -66 -127 8 -8 16 -3 28 21 10 18 37 55
62 81 40 43 49 69 23 69 -4 0 -26 -20 -47 -44z"/>
<path d="M6565 1187 c-20 -64 -21 -87 -5 -87 12 0 32 83 28 119 -3 30 -5 27
-23 -32z"/>
<path d="M7941 1211 c-12 -23 -19 -46 -16 -52 16 -25 61 51 46 78 -7 14 -12 9
-30 -26z"/>
<path d="M8780 1235 c0 -10 -8 -42 -17 -71 -16 -52 -13 -78 7 -58 6 6 16 36
22 67 9 44 9 60 0 69 -9 9 -12 8 -12 -7z"/>
<path d="M9100 1216 c-11 -22 -23 -32 -42 -34 -16 -2 -28 -7 -28 -11 0 -12 23
-31 37 -31 23 0 63 47 63 74 0 37 -13 38 -30 2z"/>
<path d="M5280 1175 c-65 -81 -105 -115 -137 -115 -14 0 -42 -15 -66 -35 -45
-39 -97 -53 -139 -37 -31 11 -36 2 -12 -22 37 -38 109 -27 167 24 18 15 49 30
69 34 30 5 49 21 95 73 32 37 70 80 86 96 27 29 28 47 2 47 -7 0 -36 -29 -65
-65z"/>
<path d="M7100 1221 c0 -13 9 -20 33 -24 41 -6 45 -2 22 23 -23 26 -55 26 -55
1z"/>
<path d="M8278 1168 c-38 -42 -68 -84 -67 -94 0 -16 2 -16 11 4 6 12 21 25 33
28 31 8 97 90 93 116 -2 18 -14 9 -70 -54z"/>
<path d="M6884 1183 c-12 -28 -13 -44 -6 -67 9 -29 10 -30 11 -6 1 14 8 36 16
50 8 14 14 33 15 43 0 30 -20 19 -36 -20z"/>
<path d="M7730 1192 c0 -6 14 -25 31 -42 24 -24 34 -28 43 -19 8 8 8 13 -2 16
-7 3 -26 16 -42 30 -17 14 -30 20 -30 15z"/>
<path d="M6024 1089 c-62 -72 -95 -102 -116 -106 -35 -7 -35 -36 0 -41 24 -4
54 23 156 138 60 68 83 110 62 110 -8 0 -54 -45 -102 -101z"/>
<path d="M8021 1168 c-1 -16 4 -28 9 -28 12 0 12 8 0 35 -8 18 -9 17 -9 -7z"/>
<path d="M3147 1158 c-8 -13 -20 -45 -27 -73 -33 -126 -107 -281 -178 -372
-49 -62 -63 -88 -22 -43 43 49 122 165 152 225 43 85 108 285 93 285 -3 0 -11
-10 -18 -22z"/>
<path d="M5880 1106 c-88 -93 -135 -126 -178 -126 -35 0 -35 0 -16 -21 33 -37
71 -19 190 88 31 27 78 108 72 121 -2 4 -32 -24 -68 -62z"/>
<path d="M4658 1090 c-83 -86 -127 -114 -164 -107 -30 5 -32 -18 -3 -33 14 -8
29 -8 51 -1 48 17 147 109 174 163 14 28 24 51 22 53 -2 2 -38 -32 -80 -75z"/>
<path d="M7670 1125 c0 -9 -14 -24 -30 -33 -33 -19 -36 -49 -5 -44 32 6 55 33
55 64 0 15 -4 28 -10 28 -5 0 -10 -7 -10 -15z"/>
<path d="M7909 1122 c-9 -4 -32 -27 -51 -52 -48 -63 -127 -103 -195 -98 -36 3
-62 13 -87 32 -44 33 -47 19 -5 -23 82 -83 237 -49 315 69 15 22 34 40 43 40
9 0 23 5 31 10 13 9 13 11 0 20 -17 11 -28 11 -51 2z"/>
<path d="M6973 1078 c14 -23 30 -44 37 -46 7 -3 -2 16 -20 42 -42 57 -50 60
-17 4z"/>
<path d="M6587 1085 c-18 -16 -40 -25 -63 -25 -22 0 -37 -6 -40 -15 -10 -24
-87 -65 -124 -65 -18 0 -42 7 -52 17 -24 21 -23 2 1 -28 29 -36 94 -33 151 6
62 43 62 43 94 50 29 6 86 55 86 74 0 18 -23 12 -53 -14z"/>
<path d="M9065 1063 c-83 -76 -164 -102 -213 -67 -24 17 -27 13 -12 -16 14
-27 68 -42 108 -30 63 17 121 59 137 96 8 20 24 38 35 41 11 3 17 9 14 14 -9
15 -17 10 -69 -38z"/>
<path d="M7301 1034 c-92 -79 -132 -94 -195 -70 -42 16 -46 16 -78 -1 -23 -12
-55 -18 -105 -18 -59 0 -77 4 -102 23 -35 25 -42 13 -11 -18 30 -30 63 -40
134 -40 40 0 74 6 98 18 31 16 39 17 59 6 44 -24 111 -17 158 16 57 42 141
124 141 138 0 24 -26 9 -99 -54z"/>
<path d="M8781 1080 c-13 -11 -34 -20 -48 -20 -14 0 -43 -15 -66 -35 -45 -39
-97 -53 -139 -37 -15 5 -28 6 -28 2 0 -15 30 -40 56 -46 32 -8 104 19 134 51
13 14 33 25 44 25 35 0 69 24 77 53 9 32 2 33 -30 7z"/>
<path d="M4206 1040 c-62 -51 -100 -66 -137 -55 -18 6 -19 4 -10 -13 23 -44
91 -29 169 37 48 39 73 82 49 80 -7 0 -39 -22 -71 -49z"/>
<path d="M6265 1081 c-3 -5 -33 -30 -67 -56 -48 -36 -69 -46 -91 -42 -21 3
-27 0 -25 -12 2 -11 16 -17 43 -19 35 -2 48 4 98 44 41 33 57 52 57 70 0 25
-5 30 -15 15z"/>
<path d="M8458 1083 c-10 -2 -18 -8 -18 -13 0 -5 -14 -25 -31 -44 -35 -41 -83
-54 -135 -38 -19 5 -34 7 -34 4 1 -33 71 -56 122 -41 35 10 88 56 88 76 0 7 7
13 15 13 9 0 15 9 15 25 0 14 -1 24 -2 24 -2 -1 -11 -3 -20 -6z"/>
<path d="M4821 1027 c-50 -38 -71 -48 -93 -45 -35 6 -38 -18 -4 -33 18 -9 31
-7 62 9 62 32 106 75 103 97 -4 19 -11 16 -68 -28z"/>
<path d="M5445 1049 c-44 -45 -102 -72 -137 -65 -37 7 -34 -12 5 -34 25 -14
30 -13 69 8 62 33 94 63 102 95 8 34 -1 34 -39 -4z"/>
<path d="M8270 1059 c0 -16 4 -19 23 -14 12 4 29 13 37 21 12 12 9 14 -23 14
-31 0 -37 -3 -37 -21z"/>
<path d="M3755 1062 c-19 -2 -43 -18 -65 -42 -24 -26 -48 -41 -73 -45 -47 -9
-43 -29 6 -33 30 -3 42 3 75 36 25 25 53 42 76 46 61 12 44 46 -19 38z"/>
<path d="M4411 1012 c-25 -20 -45 -27 -78 -27 -45 0 -50 -4 -31 -23 34 -34
149 7 156 56 4 28 -5 27 -47 -6z"/>
<path d="M5645 1030 c-4 -6 -25 -20 -47 -31 -30 -15 -50 -19 -77 -14 -36 7
-36 7 -17 -14 27 -29 82 -28 128 4 27 18 35 30 31 45 -6 23 -9 24 -18 10z"/>
<path d="M9190 1026 c0 -24 -51 -58 -77 -51 -25 6 -30 -4 -11 -23 21 -21 65
-14 87 14 22 28 29 74 11 74 -5 0 -10 -6 -10 -14z"/>
</g>
</svg>
